<svg width="84" height="71" viewBox="0 0 84 71" fill="none" xmlns="http://www.w3.org/2000/svg">
<path d="M66.5 5.94624H21C16.779 5.94624 10.5 8.30995 10.5 14.8212V56.2379C10.5 62.7492 16.779 65.1129 21 65.1129H73.5V59.1962H21.042C19.425 59.1607 17.5 58.6194 17.5 56.2379C17.5 55.9391 17.5315 55.6729 17.584 55.4303C17.976 53.7292 19.6245 53.3092 21.0385 53.2796H70C70.063 53.2796 70.1085 53.253 70.1715 53.25H73.5V11.8629C73.5 8.59987 70.3605 5.94624 66.5 5.94624ZM66.5 47.3629H17.5V14.8212C17.5 12.4368 19.425 11.8984 21 11.8629H45.5V32.5712L52.5 29.6129L59.5 32.5712V11.8629H66.5V47.3629Z" fill="black"/>
</svg>
