<svg width="84" height="71" viewBox="0 0 84 71" fill="none" xmlns="http://www.w3.org/2000/svg">
<path d="M70.0351 17.4349C69.8142 17.285 69.5492 17.1886 69.2686 17.1562C68.9879 17.1238 68.7021 17.1565 68.4417 17.2508L43.0842 26.5318C41.9817 26.9378 40.6009 27.1309 39.1834 27.1309C37.2068 27.1375 35.1619 26.7492 33.7366 26.2212C33.3022 26.0665 32.8886 25.8732 32.5028 25.6443C32.6078 25.5999 32.7391 25.5511 32.8834 25.5023L55.9467 17.0622L59.3854 18.3047V14.6726C59.3906 14.4136 59.3265 14.1569 59.1979 13.9218C59.0692 13.6867 58.8794 13.4791 58.6426 13.3147C58.4226 13.1649 58.1586 13.0686 57.8788 13.0362C57.5989 13.0038 57.314 13.0364 57.0544 13.1306L31.6969 22.4116C30.9147 22.6778 30.2427 23.0062 29.6757 23.4832C29.0191 24.0308 28.6462 24.776 28.6388 25.5556C28.6388 25.5777 28.6467 25.6155 28.6467 25.6155V58.2977L28.6414 58.342C28.6414 58.3509 28.6493 58.3553 28.6493 58.3642V58.3997H28.6546C28.7071 59.5424 29.3896 60.2701 30.0406 60.7849C32.0881 62.3114 35.5268 63.1656 39.1861 63.21C40.9186 63.21 42.6773 62.9881 44.3048 62.3979L69.6702 53.1147C70.3396 52.8706 70.7779 52.2649 70.7779 51.5793V18.7928C70.782 18.5339 70.7173 18.2776 70.5888 18.0426C70.4602 17.8076 70.271 17.6 70.0351 17.4349ZM53.9517 11.2224C53.9071 10.7343 53.6682 10.2684 53.2429 9.98881C53.0221 9.83886 52.7571 9.74251 52.4764 9.71007C52.1958 9.67763 51.9099 9.71033 51.6496 9.80466L26.2921 19.0812C25.1896 19.4851 23.8062 19.6803 22.3913 19.6803C20.4147 19.6847 18.3698 19.2965 16.9444 18.7662C16.5096 18.6141 16.0959 18.4222 15.7107 18.1937C15.8157 18.1494 15.9469 18.1006 16.0913 18.0517L39.1572 9.61162L42.5959 10.8541V7.22647C42.6006 6.9673 42.536 6.71058 42.4069 6.47547C42.2778 6.24035 42.0876 6.0329 41.8504 5.86859C41.63 5.71884 41.3655 5.62259 41.0853 5.59015C40.805 5.55771 40.5197 5.5903 40.2597 5.68444L14.9022 14.9677C14.1199 15.2339 13.4506 15.5601 12.8809 16.0393C12.2253 16.5872 11.8534 17.3324 11.8467 18.1117C11.8467 18.1383 11.8546 18.1738 11.8546 18.1738V50.9603H11.8598C11.9123 52.1029 12.5948 52.8307 13.2458 53.3454C15.2933 54.8719 18.7321 55.7239 22.3939 55.7683C23.3884 55.7633 24.3796 55.6726 25.3523 55.4976V25.6132C25.3261 24.0601 26.0611 22.5691 27.3526 21.4952C28.2473 20.7616 29.3104 20.1908 30.4763 19.8179L53.9517 11.2224Z" fill="black"/>
</svg>
