<svg width="24" height="24" viewBox="0 0 24 24" fill="none" xmlns="http://www.w3.org/2000/svg">
<path d="M17.577 19L12.81 14.234C11.7691 14.9207 10.5105 15.1966 9.27775 15.0085C8.04504 14.8203 6.92601 14.1815 6.13735 13.2155C5.34869 12.2496 4.94652 11.0254 5.00871 9.78C5.07091 8.53457 5.59305 7.35652 6.47402 6.47399C7.35639 5.59269 8.53443 5.07021 9.77996 5.00774C11.0255 4.94528 12.2499 5.34728 13.216 6.13588C14.1821 6.92448 14.8212 8.04356 15.0095 9.27637C15.1977 10.5092 14.9218 11.768 14.235 12.809L19 17.577L17.577 19ZM10.034 7.01399C9.23307 7.01346 8.46471 7.33113 7.89797 7.89712C7.33124 8.4631 7.01255 9.23104 7.01202 10.032C7.01149 10.8329 7.32916 11.6013 7.89514 12.168C8.46113 12.7348 9.22907 13.0535 10.03 13.054C10.4266 13.0543 10.8194 12.9764 11.1859 12.8249C11.5524 12.6733 11.8855 12.4511 12.1661 12.1709C12.4467 11.8906 12.6694 11.5578 12.8214 11.1915C12.9734 10.8252 13.0518 10.4326 13.052 10.036C13.0523 9.6394 12.9744 9.24664 12.8229 8.88014C12.6714 8.51363 12.4491 8.18057 12.1689 7.89995C11.8887 7.61933 11.5559 7.39666 11.1896 7.24464C10.8233 7.09263 10.4306 7.01426 10.034 7.01399Z" fill="#C4C4C4"/>
</svg>
