<svg width="85" height="71" viewBox="0 0 85 71" fill="none" xmlns="http://www.w3.org/2000/svg">
<path d="M57.75 13.3125C57.75 5.96012 50.6986 0 42 0C33.3014 0 26.25 5.96012 26.25 13.3125C26.25 20.6649 33.3014 26.625 42 26.625C50.6986 26.625 57.75 20.6649 57.75 13.3125ZM38.3234 33.4338C28.5895 28.3972 12.8231 27.0133 4.88906 26.6319C2.22305 26.5044 0 28.2211 0 30.3886V61.2846C0 63.2718 1.90148 64.9289 4.34602 65.0357C11.509 65.3533 26.0006 66.5167 36.0166 70.7809C37.5539 71.4354 39.3766 70.5438 39.3766 69.1349V35.023C39.375 34.3754 38.996 33.7819 38.3234 33.4338ZM79.1109 26.6319C71.1785 27.0119 55.4105 28.3972 45.6783 33.4338C45.0056 33.7819 44.6266 34.3989 44.6266 35.0465V69.1307C44.6266 70.5438 46.4543 71.4368 47.9965 70.7809C58.0109 66.5209 72.4943 65.3574 79.6556 65.0399C82.1002 64.9317 84.0016 63.2746 84.0016 61.2874V30.3886C84 28.2211 81.777 26.5044 79.1109 26.6319Z" fill="black"/>
</svg>
