<svg width="84" height="71" viewBox="0 0 84 71" fill="none" xmlns="http://www.w3.org/2000/svg">
<path d="M78.75 66.5625H73.5V55.4688C73.4958 52.5276 72.1117 49.7079 69.6512 47.6282C67.1907 45.5485 63.8547 44.3785 60.375 44.375V39.9375C65.2466 39.9422 69.9172 41.58 73.3619 44.4917C76.8067 47.4033 78.7444 51.351 78.75 55.4688V66.5625ZM57.75 66.5625H52.5V55.4688C52.4958 52.5276 51.1117 49.7079 48.6512 47.6282C46.1907 45.5485 42.8547 44.3785 39.375 44.375H23.625C20.1453 44.3785 16.8093 45.5485 14.3488 47.6282C11.8883 49.7079 10.5042 52.5276 10.5 55.4688V66.5625H5.25V55.4688C5.25556 51.351 7.19328 47.4033 10.6381 44.4917C14.0828 41.58 18.7534 39.9422 23.625 39.9375H39.375C44.2466 39.9422 48.9172 41.58 52.3619 44.4917C55.8067 47.4033 57.7444 51.351 57.75 55.4688V66.5625ZM52.5 4.4375V8.875C55.981 8.875 59.3194 10.0438 61.7808 12.1243C64.2422 14.2048 65.625 17.0265 65.625 19.9688C65.625 22.911 64.2422 25.7327 61.7808 27.8132C59.3194 29.8937 55.981 31.0625 52.5 31.0625V35.5C57.3734 35.5 62.0471 33.8637 65.4931 30.951C68.9391 28.0383 70.875 24.0879 70.875 19.9688C70.875 15.8496 68.9391 11.8992 65.4931 8.9865C62.0471 6.07382 57.3734 4.4375 52.5 4.4375ZM31.5 8.875C34.0959 8.875 36.6335 9.52564 38.7919 10.7446C40.9503 11.9636 42.6325 13.6962 43.6259 15.7234C44.6193 17.7505 44.8792 19.9811 44.3728 22.133C43.8664 24.285 42.6163 26.2617 40.7808 27.8132C38.9452 29.3647 36.6066 30.4213 34.0606 30.8493C31.5146 31.2774 28.8756 31.0577 26.4773 30.218C24.079 29.3784 22.0292 27.9565 20.587 26.1321C19.1448 24.3077 18.375 22.1629 18.375 19.9688C18.375 17.0265 19.7578 14.2048 22.2192 12.1243C24.6806 10.0438 28.019 8.875 31.5 8.875ZM31.5 4.4375C27.8658 4.4375 24.3132 5.34839 21.2914 7.05499C18.2696 8.76158 15.9145 11.1872 14.5237 14.0252C13.133 16.8632 12.7691 19.986 13.4781 22.9987C14.1871 26.0115 15.9371 28.7789 18.5069 30.951C21.0767 33.1231 24.3508 34.6023 27.9152 35.2016C31.4796 35.8008 35.1742 35.4933 38.5318 34.3178C41.8894 33.1422 44.7592 31.1516 46.7783 28.5975C48.7973 26.0433 49.875 23.0405 49.875 19.9688C49.875 15.8496 47.9391 11.8992 44.4931 8.9865C41.0471 6.07382 36.3734 4.4375 31.5 4.4375Z" fill="black"/>
</svg>
