<svg width="29" height="31" viewBox="0 0 29 31" fill="none" xmlns="http://www.w3.org/2000/svg">
<path d="M7.25 28.4167H22.9583C23.5993 28.4167 24.214 28.1445 24.6672 27.66C25.1204 27.1756 25.375 26.5185 25.375 25.8333V5.16668C25.375 4.48153 25.1204 3.82445 24.6672 3.33998C24.214 2.85552 23.5993 2.58334 22.9583 2.58334H6.04167C5.40073 2.58334 4.78604 2.85552 4.33283 3.33998C3.87961 3.82445 3.625 4.48153 3.625 5.16668V25.8333C3.625 26.5185 3.87961 27.1756 4.33283 27.66C4.78604 28.1445 5.40073 28.4167 6.04167 28.4167H7.25ZM14.5 6.45705C16.4901 6.45705 18.125 8.20209 18.125 10.3321C18.125 12.4607 16.4901 14.2083 14.5 14.2083C12.5099 14.2083 10.875 12.4607 10.875 10.3321C10.875 8.20209 12.5099 6.45705 14.5 6.45705ZM7.25 22.2813C7.25 19.4151 10.5185 16.4688 14.5 16.4688C18.4815 16.4688 21.75 19.4151 21.75 22.2813V23.25H7.25V22.2813Z" fill="white"/>
</svg>
